<svg width="276" height="99" viewBox="0 0 276 99" fill="none" xmlns="http://www.w3.org/2000/svg">
<rect y="59" width="192" height="32" fill="#C0FD00"/>
<path d="M41.512 70.016C41.512 73.184 40.28 75.648 37.816 77.408C35.352 79.136 31.928 80 27.544 80H8.392L12.184 74.336L12.136 52.064L7.72 46.4H27.544C35.832 46.4 39.976 49.056 39.976 54.368C39.976 57.888 38.04 60.4 34.168 61.904C39.064 62.928 41.512 65.632 41.512 70.016ZM22.216 63.872V77.6H24.52C26.792 77.6 28.504 77.04 29.656 75.92C30.84 74.8 31.432 73.136 31.432 70.928C31.432 68.688 30.856 66.96 29.704 65.744C28.552 64.496 26.92 63.872 24.808 63.872H22.216ZM23.704 61.472C25.72 61.504 27.256 60.96 28.312 59.84C29.368 58.72 29.896 57.072 29.896 54.896C29.896 50.832 28.104 48.8 24.52 48.8H22.216V61.472H23.704ZM67.4208 80L60.7968 64.928H57.7248V74.336L62.1408 80H43.8528L47.6448 74.336V52.064L43.2288 46.4H62.7648C67.3408 46.4 70.8448 47.184 73.2768 48.752C75.7088 50.32 76.9408 52.592 76.9728 55.568C76.9728 58.288 75.9328 60.464 73.8528 62.096C71.8048 63.696 68.8288 64.624 64.9248 64.88L72.2208 65.84L75.9168 74.288L80.9088 80H67.4208ZM57.7248 48.8V62.528H59.6928C64.4608 62.528 66.8768 60.192 66.9408 55.52C66.9728 51.04 64.5568 48.8 59.6928 48.8H57.7248ZM96.2084 67.856H86.8964L85.6484 71.168L90.0644 80H77.3444L83.0564 71.216L90.6404 51.296L87.9524 46.4H99.9044L108.88 74.288L112.096 80H95.8244L98.2724 74.336L96.2084 67.856ZM87.8084 65.456H95.4404L91.8884 54.608L87.8084 65.456ZM117.996 54.656L111.996 46.4H124.428L141.612 68.912V52.112L137.82 46.4H147.9L144.012 52.112V80H137.244L120.396 57.824V74.336L124.284 80H114.204L117.996 74.336V54.656ZM182.668 63.152C182.668 68.912 181.292 73.168 178.54 75.92C175.788 78.64 171.516 80 165.724 80H149.068L152.86 74.336L152.812 52.064L148.396 46.4H165.724C171.516 46.4 175.788 47.76 178.54 50.48C181.292 53.2 182.668 57.424 182.668 63.152ZM164.284 77.648C169.82 77.648 172.588 72.72 172.588 62.864C172.588 58.032 171.916 54.48 170.572 52.208C169.228 49.936 167.132 48.8 164.284 48.8H162.892V77.648H164.284ZM202.676 80H184.436L188.228 74.336L188.18 52.064L183.764 46.4H202.58L198.26 52.064V74.336L202.676 80ZM233.436 69.68C233.436 71.76 232.876 73.488 231.756 74.864C230.636 76.24 229.228 77.36 227.532 78.224C225.868 79.056 224.028 79.648 222.012 80C220.028 80.352 218.156 80.528 216.396 80.528C215.724 80.528 214.892 80.48 213.9 80.384C212.908 80.32 211.852 80.208 210.732 80.048C209.644 79.888 208.54 79.696 207.42 79.472C206.3 79.216 205.26 78.912 204.3 78.56V68.48L214.764 78.128C215.276 78.128 215.884 78.112 216.588 78.08C217.324 78.016 217.996 77.904 218.604 77.744C219.756 77.488 220.78 77.04 221.676 76.4C222.604 75.728 223.068 74.816 223.068 73.664C223.068 72.608 222.764 71.712 222.156 70.976C221.548 70.24 220.812 69.6 219.948 69.056C219.084 68.512 218.172 68.032 217.212 67.616C216.252 67.168 215.42 66.736 214.716 66.32C213.436 65.712 212.188 65.072 210.972 64.4C209.788 63.696 208.716 62.928 207.756 62.096C206.828 61.232 206.076 60.256 205.5 59.168C204.924 58.08 204.636 56.816 204.636 55.376C204.636 52.304 205.996 49.936 208.716 48.272C211.468 46.576 215.372 45.728 220.428 45.728C221.452 45.728 222.476 45.76 223.5 45.824C224.524 45.888 225.5 45.984 226.428 46.112C227.356 46.24 228.204 46.4 228.972 46.592C229.772 46.752 230.46 46.944 231.036 47.168V57.824H230.892L221.532 48.128H221.484H221.388C221.196 48.128 220.988 48.128 220.764 48.128C220.54 48.128 220.3 48.16 220.044 48.224C219.404 48.288 218.764 48.4 218.124 48.56C217.484 48.72 216.908 48.96 216.396 49.28C215.884 49.568 215.452 49.952 215.1 50.432C214.78 50.88 214.62 51.44 214.62 52.112C214.62 53.328 215.148 54.336 216.204 55.136C217.26 55.904 218.62 56.656 220.284 57.392C221.564 57.968 222.956 58.592 224.46 59.264C225.996 59.936 227.42 60.736 228.732 61.664C230.076 62.592 231.196 63.712 232.092 65.024C232.988 66.304 233.436 67.856 233.436 69.68ZM259.824 52.064L255.408 46.4H274.224L269.904 52.064V74.336L274.32 80H256.08L259.872 74.336V63.872H249.168V74.336L253.584 80H235.344L239.136 74.336L239.088 52.064L234.672 46.4H253.488L249.168 52.064V61.472H259.872L259.824 52.064Z" fill="#2B2B2B"/>
<path d="M181 30L178 33L175 36.5M189.5 31V34.5V38.5M196 30.5L200 36.5M203 27.5L209 32.5M202 11L208.5 3M195 9L195.5 2M186 10L184 2.5M181 13L175 7.5M180 22.5C182.915 25.9005 193.381 28.357 204.979 20.24C205.527 19.8564 205.591 19.0746 205.127 18.5923V18.5923C198.678 11.885 188.039 11.5973 181.236 17.9462L179.785 19.3006C179.054 19.9829 178.955 21.1063 179.555 21.9062L180 22.5Z" stroke="#0600FF" stroke-width="3" stroke-linecap="round"/>
<path d="M194.5 18.5C194.5 19.4655 193.531 20.5 192 20.5C190.469 20.5 189.5 19.4655 189.5 18.5C189.5 17.5345 190.469 16.5 192 16.5C193.531 16.5 194.5 17.5345 194.5 18.5Z" stroke="#0600FF" stroke-width="2"/>
</svg>
