<?xml version="1.0" encoding="utf-8"?>
<!-- Generator: Adobe Illustrator 26.0.3, SVG Export Plug-In . SVG Version: 6.00 Build 0)  -->
<svg version="1.1" id="Layer_1" xmlns="http://www.w3.org/2000/svg" xmlns:xlink="http://www.w3.org/1999/xlink" x="0px" y="0px"
	 viewBox="0 0 100 100" style="enable-background:new 0 0 100 100;" xml:space="preserve">
<style type="text/css">
	.st0{fill:#FFFFFF;}
</style>
<g>
	<path class="st0" d="M50.7,78.3c-1.5-0.8-2.3-2.3-2.3-4.5c0-1.3,0.3-2.9,1-4.5c0.9,1,1.8,1.7,2.6,2.2c0.8,0.4,1.7,0.6,2.6,0.6
		c2.6,0,4.5-1.5,5.8-4.3c1.3-2.9,1.9-6.1,1.9-9.6c0-6.5-2.4-9.8-7.3-9.8c-1.4,0-2.6,0.1-3.6,0.2L45,78.3H33.8l10.5-49.2l11.4-1.5
		l-3.6,17.1h0.5c2,0,3.8-0.6,5.5-1.9c1.7-1.3,3.1-2.9,4.1-4.8c1-2,1.5-3.9,1.5-5.9c0-2.4-0.8-4.4-2.5-6s-4.2-2.4-7.7-2.4
		c-3.1,0-6.2,0.7-9.2,2.2c-3,1.4-5.4,3.6-7.3,6.4c-1.9,2.9-2.9,6.3-2.9,10.3c0,1.9,0.2,3.2,0.6,4c0.3,0.8,0.6,1.2,0.6,1.3
		c-2.7,0-4.8-0.6-6.2-1.7c-1.4-1.1-2.1-2.9-2.1-5.4c0-3.5,1.3-6.8,4-10s6.1-5.7,10.4-7.6c4.3-2,8.9-2.9,13.7-2.9
		c3.6,0,6.7,0.6,9.1,1.7c2.5,1.1,4.3,2.6,5.5,4.5s1.8,3.9,1.8,6.1c0,2.4-0.7,4.7-2,6.9s-3.3,4-5.7,5.4c3.1,0.6,5.4,2,6.9,4.3
		s2.2,5,2.2,8.1c0,2.9-0.6,6.1-1.7,9.6s-2.9,6.4-5.5,8.9s-5.8,3.8-9.8,3.8C54,79.7,52.2,79.3,50.7,78.3z"/>
</g>
</svg>
